<svg width="158" height="50" viewBox="0 0 158 50" fill="none" xmlns="http://www.w3.org/2000/svg">
<g filter="url(#filter0_d_132_0)">
<rect x="4" width="150" height="42" rx="21" fill="#9953F1"/>
<path d="M67.4746 28.4404H66.1689V26H59.0254V28.4473H57.7129L57.7061 24.9268H58.5195C58.9479 24.4437 59.2874 23.7965 59.5381 22.9854C59.7933 22.1696 59.9528 21.2764 60.0166 20.3057L60.2354 16.0469H66.1895V24.9268H67.4883L67.4746 28.4404ZM60.0166 24.9268H64.8701V17.127H61.5L61.3564 20.0527C61.2972 21.1966 61.1445 22.1719 60.8984 22.9785C60.6569 23.7852 60.363 24.4346 60.0166 24.9268ZM68.5137 22.2334C68.5137 21.5088 68.6549 20.8571 68.9375 20.2783C69.2246 19.6995 69.6211 19.2529 70.127 18.9385C70.6374 18.624 71.2184 18.4668 71.8701 18.4668C72.8773 18.4668 73.6908 18.8154 74.3105 19.5127C74.9349 20.21 75.2471 21.1374 75.2471 22.2949V22.3838C75.2471 23.1038 75.1081 23.751 74.8301 24.3252C74.5566 24.8949 74.1624 25.3392 73.6475 25.6582C73.137 25.9772 72.5492 26.1367 71.8838 26.1367C70.8812 26.1367 70.0677 25.7881 69.4434 25.0908C68.8236 24.3936 68.5137 23.4707 68.5137 22.3223V22.2334ZM69.7852 22.3838C69.7852 23.2041 69.9743 23.8626 70.3525 24.3594C70.7354 24.8561 71.2458 25.1045 71.8838 25.1045C72.5264 25.1045 73.0368 24.8538 73.415 24.3525C73.7933 23.8467 73.9824 23.1403 73.9824 22.2334C73.9824 21.4222 73.7887 20.766 73.4014 20.2646C73.0186 19.7588 72.5081 19.5059 71.8701 19.5059C71.2458 19.5059 70.7422 19.7542 70.3594 20.251C69.9766 20.7477 69.7852 21.4587 69.7852 22.3838ZM80.0801 19.0273C81.0098 19.0273 81.7526 19.3395 82.3086 19.9639C82.8691 20.5837 83.1494 21.4017 83.1494 22.418V22.5342C83.1494 23.2314 83.015 23.8558 82.7461 24.4072C82.4772 24.9541 82.0898 25.3802 81.584 25.6855C81.0827 25.9863 80.5039 26.1367 79.8477 26.1367C78.8542 26.1367 78.0544 25.8063 77.4482 25.1455C76.8421 24.4801 76.5391 23.5892 76.5391 22.4727V21.8574C76.5391 20.3034 76.8262 19.0684 77.4004 18.1523C77.9792 17.2363 78.8314 16.6781 79.957 16.4775C80.5951 16.3636 81.0257 16.2246 81.249 16.0605C81.4723 15.8965 81.584 15.6709 81.584 15.3838H82.623C82.623 15.9535 82.4932 16.3978 82.2334 16.7168C81.9782 17.0358 81.568 17.2614 81.0029 17.3936L80.0596 17.6055C79.3076 17.7832 78.7425 18.084 78.3643 18.5078C77.9906 18.9271 77.7467 19.4876 77.6328 20.1895C78.3027 19.4147 79.1185 19.0273 80.0801 19.0273ZM79.834 20.0664C79.2142 20.0664 78.722 20.276 78.3574 20.6953C77.9928 21.11 77.8105 21.6865 77.8105 22.4248V22.5342C77.8105 23.3271 77.9928 23.9561 78.3574 24.4209C78.7266 24.8812 79.2233 25.1113 79.8477 25.1113C80.4766 25.1113 80.9733 24.8789 81.3379 24.4141C81.7025 23.9492 81.8848 23.2702 81.8848 22.377C81.8848 21.6797 81.7002 21.1214 81.3311 20.7021C80.9665 20.2783 80.4674 20.0664 79.834 20.0664ZM89.1377 26C89.0648 25.8542 89.0055 25.5944 88.96 25.2207C88.3721 25.8314 87.6702 26.1367 86.8545 26.1367C86.1253 26.1367 85.526 25.9316 85.0566 25.5215C84.5918 25.1068 84.3594 24.5827 84.3594 23.9492C84.3594 23.179 84.651 22.582 85.2344 22.1582C85.8223 21.7298 86.6471 21.5156 87.709 21.5156H88.9395V20.9346C88.9395 20.4925 88.8073 20.1416 88.543 19.8818C88.2786 19.6175 87.889 19.4854 87.374 19.4854C86.9229 19.4854 86.5446 19.5993 86.2393 19.8271C85.9339 20.055 85.7812 20.3307 85.7812 20.6543H84.5098C84.5098 20.2852 84.6396 19.9297 84.8994 19.5879C85.1637 19.2415 85.5192 18.9681 85.9658 18.7676C86.417 18.5671 86.9115 18.4668 87.4492 18.4668C88.3014 18.4668 88.9691 18.681 89.4521 19.1094C89.9352 19.5332 90.1859 20.1188 90.2041 20.8662V24.2705C90.2041 24.9495 90.2907 25.4896 90.4639 25.8906V26H89.1377ZM87.0391 25.0361C87.4355 25.0361 87.8115 24.9336 88.167 24.7285C88.5225 24.5234 88.7799 24.2568 88.9395 23.9287V22.4111H87.9482C86.3988 22.4111 85.624 22.8646 85.624 23.7715C85.624 24.168 85.7562 24.4779 86.0205 24.7012C86.2848 24.9245 86.6243 25.0361 87.0391 25.0361ZM92.3027 26V18.6035H95.1875C96.1719 18.6035 96.9261 18.7767 97.4502 19.123C97.9788 19.4648 98.2432 19.9684 98.2432 20.6338C98.2432 20.9756 98.1406 21.2855 97.9355 21.5635C97.7305 21.8369 97.4274 22.0465 97.0264 22.1924C97.473 22.2972 97.8307 22.5023 98.0996 22.8076C98.373 23.113 98.5098 23.4775 98.5098 23.9014C98.5098 24.5804 98.2591 25.0999 97.7578 25.46C97.2611 25.82 96.557 26 95.6455 26H92.3027ZM93.5674 22.7529V24.9814H95.6592C96.1878 24.9814 96.582 24.8835 96.8418 24.6875C97.1061 24.4915 97.2383 24.2158 97.2383 23.8604C97.2383 23.1221 96.696 22.7529 95.6113 22.7529H93.5674ZM93.5674 21.7412H95.2012C96.3861 21.7412 96.9785 21.3949 96.9785 20.7021C96.9785 20.0094 96.418 19.6517 95.2969 19.6289H93.5674V21.7412ZM104.97 18.6035H106.234V26H104.97V20.6064L101.559 26H100.294V18.6035H101.559V24.0039L104.97 18.6035ZM113.761 19.6289H111.279V26H110.015V19.6289H107.581V18.6035H113.761V19.6289ZM116.372 21.1533H118.293C119.132 21.1624 119.795 21.3812 120.282 21.8096C120.77 22.238 121.014 22.819 121.014 23.5527C121.014 24.291 120.763 24.8835 120.262 25.3301C119.76 25.7767 119.086 26 118.238 26H115.107V18.6035H116.372V21.1533ZM116.372 22.1855V24.9678H118.252C118.726 24.9678 119.093 24.847 119.353 24.6055C119.612 24.3594 119.742 24.0244 119.742 23.6006C119.742 23.1904 119.615 22.8555 119.359 22.5957C119.109 22.3314 118.756 22.1947 118.3 22.1855H116.372Z" fill="white"/>
<rect x="4" width="42" height="42" rx="21" fill="#AA68FE"/>
<path d="M25.6084 20.6611H28.3838V21.8574H25.6084V25.002H24.3369V21.8574H21.5615V20.6611H24.3369V17.7559H25.6084V20.6611Z" fill="white"/>
</g>
<defs>
<filter id="filter0_d_132_0" x="0" y="0" width="158" height="50" filterUnits="userSpaceOnUse" color-interpolation-filters="sRGB">
<feFlood flood-opacity="0" result="BackgroundImageFix"/>
<feColorMatrix in="SourceAlpha" type="matrix" values="0 0 0 0 0 0 0 0 0 0 0 0 0 0 0 0 0 0 127 0" result="hardAlpha"/>
<feOffset dy="4"/>
<feGaussianBlur stdDeviation="2"/>
<feComposite in2="hardAlpha" operator="out"/>
<feColorMatrix type="matrix" values="0 0 0 0 0 0 0 0 0 0 0 0 0 0 0 0 0 0 0.25 0"/>
<feBlend mode="normal" in2="BackgroundImageFix" result="effect1_dropShadow_132_0"/>
<feBlend mode="normal" in="SourceGraphic" in2="effect1_dropShadow_132_0" result="shape"/>
</filter>
</defs>
</svg>
